<mxfile host="app.diagrams.net" agent="Mozilla/5.0 (Windows NT 10.0; Win64; x64) AppleWebKit/537.36 (KHTML, like Gecko) Chrome/131.0.0.0 Safari/537.36 Edg/131.0.0.0" version="25.0.1">
  <diagram name="Page-1" id="JcgWjjtzCGEYnH6T8sU2">
    <mxGraphModel dx="2316" dy="2356" grid="1" gridSize="10" guides="1" tooltips="1" connect="1" arrows="1" fold="1" page="1" pageScale="1" pageWidth="850" pageHeight="1100" math="0" shadow="0">
      <root>
        <mxCell id="0" />
        <mxCell id="1" parent="0" />
        <mxCell id="jKDav90xjQbpePq6UC16-8" style="edgeStyle=orthogonalEdgeStyle;rounded=0;orthogonalLoop=1;jettySize=auto;html=1;exitX=0.5;exitY=1;exitDx=0;exitDy=0;entryX=0.5;entryY=0;entryDx=0;entryDy=0;" edge="1" parent="1" source="jKDav90xjQbpePq6UC16-3" target="jKDav90xjQbpePq6UC16-5">
          <mxGeometry relative="1" as="geometry" />
        </mxCell>
        <mxCell id="jKDav90xjQbpePq6UC16-3" value="" style="rounded=0;whiteSpace=wrap;html=1;" vertex="1" parent="1">
          <mxGeometry x="250" y="70" width="400" height="120" as="geometry" />
        </mxCell>
        <mxCell id="jKDav90xjQbpePq6UC16-9" style="edgeStyle=orthogonalEdgeStyle;rounded=0;orthogonalLoop=1;jettySize=auto;html=1;exitX=0.5;exitY=1;exitDx=0;exitDy=0;" edge="1" parent="1" source="jKDav90xjQbpePq6UC16-5" target="jKDav90xjQbpePq6UC16-6">
          <mxGeometry relative="1" as="geometry" />
        </mxCell>
        <mxCell id="jKDav90xjQbpePq6UC16-5" value="" style="rounded=0;whiteSpace=wrap;html=1;" vertex="1" parent="1">
          <mxGeometry x="250" y="260" width="400" height="120" as="geometry" />
        </mxCell>
        <mxCell id="jKDav90xjQbpePq6UC16-10" style="edgeStyle=orthogonalEdgeStyle;rounded=0;orthogonalLoop=1;jettySize=auto;html=1;exitX=0.5;exitY=1;exitDx=0;exitDy=0;entryX=0.5;entryY=0;entryDx=0;entryDy=0;" edge="1" parent="1" source="jKDav90xjQbpePq6UC16-6" target="jKDav90xjQbpePq6UC16-7">
          <mxGeometry relative="1" as="geometry" />
        </mxCell>
        <mxCell id="jKDav90xjQbpePq6UC16-6" value="" style="rounded=0;whiteSpace=wrap;html=1;" vertex="1" parent="1">
          <mxGeometry x="250" y="440" width="400" height="120" as="geometry" />
        </mxCell>
        <mxCell id="jKDav90xjQbpePq6UC16-11" style="edgeStyle=orthogonalEdgeStyle;rounded=0;orthogonalLoop=1;jettySize=auto;html=1;exitX=0.5;exitY=1;exitDx=0;exitDy=0;" edge="1" parent="1" source="jKDav90xjQbpePq6UC16-7">
          <mxGeometry relative="1" as="geometry">
            <mxPoint x="449.66666666666697" y="820.0000000000002" as="targetPoint" />
          </mxGeometry>
        </mxCell>
        <mxCell id="jKDav90xjQbpePq6UC16-7" value="" style="rounded=0;whiteSpace=wrap;html=1;" vertex="1" parent="1">
          <mxGeometry x="250" y="630" width="400" height="120" as="geometry" />
        </mxCell>
        <mxCell id="jKDav90xjQbpePq6UC16-15" value="" style="endArrow=classic;html=1;rounded=0;flowAnimation=1;" edge="1" parent="1">
          <mxGeometry width="50" height="50" relative="1" as="geometry">
            <mxPoint x="450" y="820" as="sourcePoint" />
            <mxPoint x="450" as="targetPoint" />
            <Array as="points">
              <mxPoint x="160" y="820" />
              <mxPoint x="160" />
            </Array>
          </mxGeometry>
        </mxCell>
        <mxCell id="jKDav90xjQbpePq6UC16-16" value="" style="endArrow=classic;html=1;rounded=0;entryX=0.5;entryY=0;entryDx=0;entryDy=0;" edge="1" parent="1" target="jKDav90xjQbpePq6UC16-3">
          <mxGeometry width="50" height="50" relative="1" as="geometry">
            <mxPoint x="450" as="sourcePoint" />
            <mxPoint x="510" y="-70" as="targetPoint" />
          </mxGeometry>
        </mxCell>
        <mxCell id="jKDav90xjQbpePq6UC16-18" style="edgeStyle=orthogonalEdgeStyle;rounded=0;orthogonalLoop=1;jettySize=auto;html=1;entryX=1;entryY=0.5;entryDx=0;entryDy=0;" edge="1" parent="1" source="jKDav90xjQbpePq6UC16-17" target="jKDav90xjQbpePq6UC16-6">
          <mxGeometry relative="1" as="geometry" />
        </mxCell>
        <mxCell id="jKDav90xjQbpePq6UC16-17" value="" style="rounded=0;whiteSpace=wrap;html=1;" vertex="1" parent="1">
          <mxGeometry x="750" y="415" width="280" height="170" as="geometry" />
        </mxCell>
      </root>
    </mxGraphModel>
  </diagram>
</mxfile>
